<svg xmlns="http://www.w3.org/2000/svg" width="160" height="160" viewBox="0 0 160 160"><g fill="none" fill-rule="evenodd"><path fill="#FF4785" fill-rule="nonzero" d="M142.166392,2.18614563 C143.788513,3.71016255 144.707826,5.83705136 144.707826,8.06278782 L144.707,90.508 L143.206201,87.9266272 L142.950255,87.4948201 C137.514404,78.4982734 128.257202,74 119,74 C109.595858,74 100.191716,78.6422091 94.7937988,87.9266272 L94.7937988,87.9266272 L69.7937988,130.926627 L69.5182585,131.410899 C67.0869875,135.77853 65.9652454,140.389808 65.9549549,144.890327 C65.945123,149.246052 66.9743715,153.496351 68.8542186,157.319348 L28.6688259,155.513788 C24.4774569,155.325738 21.1309381,151.95443 20.9738259,147.761788 L20.9728259,147.761788 L16.0058259,15.4017878 C15.8410159,11.030205 19.1926698,7.32488124 23.5588259,7.05178782 L136.142826,0.0157878194 C138.364208,-0.123372537 140.544272,0.662128705 142.166392,2.18614563 Z"/><path fill="#FFF" d="M74.4478259,96.8167878 C74.1788564,106.848086 76.21373,110.488419 81.3193569,111.102486 L70.3058264,130.046738 C57.2507262,126.73857 47.8475783,117.343395 49.2918259,96.8167878 C50.0358259,93.6537878 74.4478259,94.4057878 74.4478259,96.8167878 Z M82.7828259,28.8427878 C103.560946,28.8427878 115.001653,39.8434302 115.228389,60.7890297 L115.231826,61.4257878 C112.395826,63.6287878 91.2668259,65.1327878 91.2668259,61.9957878 C91.6736461,51.102653 87.2713303,49.6886349 84.2324038,49.5224437 L84.0098847,49.5122915 C83.790045,49.5041739 83.5785225,49.5017878 83.3778259,49.5017878 C80.5498259,49.5017878 75.7878259,50.3567878 75.7878259,56.7687878 C75.7878259,63.3027878 82.7478259,66.9917878 90.9178259,71.3217878 C91.1499659,71.4447878 91.3830819,71.5683054 91.617042,71.6924206 L92.3213227,72.0666386 C95.992731,74.0213162 99.8372124,76.1406335 103.355117,78.7274659 C99.9971839,80.9855755 97.0465949,84.0518179 94.7937988,87.9266272 L94.7937988,87.9266272 L88.5812958,98.6135146 C85.9762395,94.6467632 80.5805499,91.6166953 74.6298259,88.2757878 C74.4038859,88.1489278 74.1771459,88.021619 73.9497282,87.8937931 L73.2655649,87.5086956 C62.2903411,81.320127 50.0358259,73.7826678 50.0358259,57.3397878 C50.0358259,40.2417878 61.7958259,28.8427878 82.7828259,28.8427878 Z M127.290412,0.569787819 L127.936826,19.0737878 C127.953802,19.5420008 127.697175,19.9774091 127.279327,20.1893394 C126.861479,20.4012696 126.358567,20.3510949 125.990826,20.0607878 L125.990826,20.0607878 L120.028826,15.3637878 L112.968826,20.7177878 C112.597721,20.9986524 112.097903,21.0402637 111.685464,20.8246313 C111.273024,20.608999 111.021964,20.1748125 111.040826,19.7097878 L111.040826,19.7097878 L111.795826,1.53778782 L127.290412,0.569787819 Z"/><polygon stroke="#FFAE00" stroke-linejoin="round" stroke-width="14" points="119 102 144 145 94 145"/></g></svg>