<svg xmlns="http://www.w3.org/2000/svg" width="160" height="160" viewBox="0 0 160 160">
  <defs>
    <polygon id="active" fill="none" stroke="#029CFD" stroke-linejoin="round" stroke-width="14"
      points="125 105 150 148 100 148" transform="rotate(90 125 126.5)" />
    <circle id="critical" fill="none" cx="119.5" cy="124.5" r="23.5" stroke="#000" stroke-linejoin="round"
      stroke-width="14" />
    <path id="negative" fill="none" stroke="#F40" stroke-linecap="round" stroke-linejoin="round" stroke-width="14"
      d="M97,102 L141,146 M141,102 L97,146" />
    <polyline id="positive" fill="none" stroke="#66BF3C" stroke-linecap="round" stroke-linejoin="round"
      stroke-width="14" points="98.758 128.562 116.02 145.961 148.758 112.961" />
    <polygon id="warning" fill="none" stroke="#FFAE00" stroke-linejoin="round" stroke-width="14"
      points="119 102 144 145 94 145" />

    <mask id="active-mask">
      <rect x="0" y="0" width="160" height="160" fill="#FFF" />
      <path
        d="M125,77 C134.404142,77 143.808284,81.6422091 149.206201,90.9266272 L149.206201,90.9266272 L174.206201,133.926627 C176.828396,138.436802 178.034373,143.223122 178.045045,147.890327 C178.05631,152.881111 176.703414,157.733487 174.269883,161.963265 C171.836352,166.193044 168.321431,169.801536 164.001165,172.300206 C159.961005,174.636874 155.217047,176 150,176 L150,176 L100,176 C94.7829529,176 90.0389954,174.636874 85.9988352,172.300206 C81.6785689,169.801536 78.1636481,166.193044 75.730117,161.963265 C73.2965859,157.733487 71.9436896,152.881111 71.9549549,147.890327 C71.9656265,143.223122 73.1716042,138.436802 75.7937988,133.926627 L75.7937988,133.926627 L100.793799,90.9266272 C106.191716,81.6422091 115.595858,77 125,77 Z"
        transform="translate(125.000000, 126.500000) rotate(-270.000000) translate(-125.000000, -126.500000)"></path>
    </mask>
    <mask id="critical-mask">
      <rect x="0" y="0" width="160" height="160" fill="#FFF" />
      <path
        d="M119.5,73 C133.721332,73 146.596332,78.7643338 155.915999,88.0840008 C165.235666,97.4036677 171,110.278668 171,124.5 C171,138.721332 165.235666,151.596332 155.915999,160.915999 C146.596332,170.235666 133.721332,176 119.5,176 C105.278668,176 92.4036677,170.235666 83.0840008,160.915999 C73.7643338,151.596332 68,138.721332 68,124.5 C68,110.278668 73.7643338,97.4036677 83.0840008,88.0840008 C92.4036677,78.7643338 105.278668,73 119.5,73 Z">
      </path>
    </mask>
    <mask id="negative-mask">
      <rect x="0" y="0" width="160" height="160" fill="#FFF" />
      <path
        d="M141,74 C148.165825,74 155.33165,76.73367 160.79899,82.2010101 C166.207039,87.6090593 168.940416,94.6789519 169,101.76688 C169.05772,108.862554 166.436052,115.976438 161.133403,121.458957 L161.133403,121.458957 L158.603,124.003364 L160.79899,126.20101 C166.26633,131.66835 169,138.834175 169,146 C169,153.165825 166.26633,160.33165 160.79899,165.79899 C155.390941,171.207039 148.321048,173.940416 141.23312,174 C134.137446,174.05772 127.023562,171.436052 121.541043,166.133403 L121.541043,166.133403 L118.996636,163.603 L116.79899,165.79899 C111.33165,171.26633 104.165825,174 97,174 C89.8341751,174 82.6683502,171.26633 77.2010101,165.79899 C71.792961,160.390941 69.0595837,153.321048 69,146.23312 C68.9422802,139.137446 71.5639481,132.023562 76.8665972,126.541043 L76.8665972,126.541043 L79.3969998,123.996636 L77.2010101,121.79899 C71.73367,116.33165 69,109.165825 69,102 C69,94.8341751 71.73367,87.6683502 77.2010101,82.2010101 C82.6090593,76.792961 89.6789519,74.0595837 96.7668799,74 C103.862554,73.9422802 110.976438,76.5639481 116.458957,81.8665972 L116.458957,81.8665972 L119.003364,84.3969998 L121.20101,82.2010101 C126.66835,76.73367 133.834175,74 141,74 Z">
      </path>
    </mask>
    <mask id="positive-mask">
      <rect x="0" y="0" width="160" height="160" fill="#FFF" />
      <path
        d="M148.647104,84.9614023 C155.812872,84.9331412 162.989506,87.638306 168.478536,93.0838706 C173.908039,98.4703804 176.669497,105.529352 176.75629,112.616991 C176.843168,119.711561 174.250404,126.834988 168.970814,132.338281 L168.970814,132.338281 L135.897244,165.681537 C130.480482,171.141534 123.37649,173.901194 116.254171,173.960429 C109.12473,174.019722 101.976784,171.37345 96.4846349,166.020963 L96.4846349,166.020963 L78.8808687,148.282455 C73.4353041,142.793426 70.7301393,135.616791 70.7584004,128.451023 C70.7871067,121.285255 73.5492388,114.130353 79.038268,108.684788 C83.7724307,103.988112 89.7618742,101.329586 95.9171917,100.705836 C102.186247,100.07056 108.627613,101.544079 114.089121,105.124869 L114.089121,105.124869 L115.890698,106.333879 L128.880869,93.2412698 C134.326433,87.7522406 141.481335,84.9901085 148.647104,84.9614023 Z">
      </path>
    </mask>
    <mask id="warning-mask">
      <rect x="0" y="0" width="160" height="160" fill="#FFF" />
      <path
        d="M119,74 C128.404142,74 137.808284,78.6422091 143.206201,87.9266272 L143.206201,87.9266272 L168.206201,130.926627 C170.828396,135.436802 172.034373,140.223122 172.045045,144.890327 C172.05631,149.881111 170.703414,154.733487 168.269883,158.963265 C165.836352,163.193044 162.321431,166.801536 158.001165,169.300206 C153.961005,171.636874 149.217047,173 144,173 L144,173 L94,173 C88.7829529,173 84.0389954,171.636874 79.9988352,169.300206 C75.6785689,166.801536 72.1636481,163.193044 69.730117,158.963265 C67.2965859,154.733487 65.9436896,149.881111 65.9549549,144.890327 C65.9656265,140.223122 67.1716042,135.436802 69.7937988,130.926627 L69.7937988,130.926627 L94.7937988,87.9266272 C100.191716,78.6422091 109.595858,74 119,74 Z">
      </path>
    </mask>
  </defs>

  <g id="mask">
    <use id="icon" />
  </g>
  <use id="status" />
</svg>
