<svg xmlns="http://www.w3.org/2000/svg" width="160" height="160" viewBox="0 0 160 160"><g fill="none" fill-rule="evenodd"><path fill="#FF4785" fill-rule="nonzero" d="M142.166392,2.18614563 C143.788513,3.71016255 144.707826,5.83705136 144.707826,8.06278782 L144.708391,79.580845 C137.257085,75.3902268 128.657676,73 119.5,73 C105.278668,73 92.4036677,78.7643338 83.0840008,88.0840008 C73.7643338,97.4036677 68,110.278668 68,124.5 C68,137.211131 72.6050778,148.846689 80.237885,157.829325 L28.6688259,155.513788 C24.4774569,155.325738 21.1309381,151.95443 20.9738259,147.761788 L20.9728259,147.761788 L16.0058259,15.4017878 C15.8410159,11.030205 19.1926698,7.32488124 23.5588259,7.05178782 L136.142826,0.0157878194 C138.364208,-0.123372537 140.544272,0.662128705 142.166392,2.18614563 Z"/><path fill="#FFF" d="M74.4478259,96.8167878 C74.4217911,97.7877609 74.4173414,98.6988561 74.4351723,99.5531248 C70.3347397,106.943792 68,115.449242 68,124.5 C68,126.173259 68.0797985,127.827879 68.2357975,129.460264 C56.2723581,125.697711 47.925114,116.241406 49.2918259,96.8167878 C50.0358259,93.6537878 74.4478259,94.4057878 74.4478259,96.8167878 Z M82.7828259,28.8427878 C103.560946,28.8427878 115.001653,39.8434302 115.228389,60.7890297 L115.231826,61.4257878 C112.395826,63.6287878 91.2668259,65.1327878 91.2668259,61.9957878 C91.6736461,51.102653 87.2713303,49.6886349 84.2324038,49.5224437 L84.0098847,49.5122915 C83.790045,49.5041739 83.5785225,49.5017878 83.3778259,49.5017878 C80.5498259,49.5017878 75.7878259,50.3567878 75.7878259,56.7687878 C75.7878259,63.3027878 82.7478259,66.9917878 90.9178259,71.3217878 C91.1499659,71.4447878 91.3830819,71.5683054 91.617042,71.6924206 L92.3213227,72.0666386 C94.9733843,73.4786105 97.7157551,74.976491 100.360105,76.6744408 C93.8356421,79.2875845 87.9710152,83.1969864 83.0840008,88.0840008 C82.0244862,89.1435153 81.0109226,90.2489806 80.0465554,91.3971511 C78.3445597,90.3614237 76.515046,89.3342046 74.6298259,88.2757878 C74.4038859,88.1489278 74.1771459,88.021619 73.9497282,87.8937931 L73.2655649,87.5086956 C62.2903411,81.320127 50.0358259,73.7826678 50.0358259,57.3397878 C50.0358259,40.2417878 61.7958259,28.8427878 82.7828259,28.8427878 Z M127.290412,0.569787819 L127.936826,19.0737878 C127.953802,19.5420008 127.697175,19.9774091 127.279327,20.1893394 C126.861479,20.4012696 126.358567,20.3510949 125.990826,20.0607878 L125.990826,20.0607878 L120.028826,15.3637878 L112.968826,20.7177878 C112.597721,20.9986524 112.097903,21.0402637 111.685464,20.8246313 C111.273024,20.608999 111.021964,20.1748125 111.040826,19.7097878 L111.040826,19.7097878 L111.795826,1.53778782 L127.290412,0.569787819 Z"/><circle cx="119.5" cy="124.5" r="23.5" stroke="#000" stroke-linejoin="round" stroke-width="14"/></g></svg>