<svg xmlns="http://www.w3.org/2000/svg" width="160" height="160" viewBox="0 0 160 160"><g fill="none" fill-rule="evenodd"><path fill="#FF4785" fill-rule="nonzero" d="M142.166392,2.18614563 C143.788513,3.71016255 144.707826,5.83705136 144.707826,8.06278782 L144.707398,74.2450665 C143.477448,74.0816888 142.238724,74 141,74 C133.834175,74 126.66835,76.73367 121.20101,82.2010101 L121.20101,82.2010101 L119.003364,84.3969998 L116.458957,81.8665972 L116.091057,81.5170591 C110.660275,76.4487527 103.704872,73.9435628 96.7668799,74 C89.6789519,74.0595837 82.6090593,76.792961 77.2010101,82.2010101 C71.73367,87.6683502 69,94.8341751 69,102 C69,109.165825 71.73367,116.33165 77.2010101,121.79899 L77.2010101,121.79899 L79.3969998,123.996636 L76.8665972,126.541043 L76.5170591,126.908943 C71.4487527,132.339725 68.9435628,139.295128 69,146.23312 C69.0321559,150.0583 69.8430525,153.878227 71.4328281,157.434527 L28.6688259,155.513788 C24.4774569,155.325738 21.1309381,151.95443 20.9738259,147.761788 L20.9728259,147.761788 L16.0058259,15.4017878 C15.8410159,11.030205 19.1926698,7.32488124 23.5588259,7.05178782 L136.142826,0.0157878194 C138.364208,-0.123372537 140.544272,0.662128705 142.166392,2.18614563 Z"/><path fill="#FFF" d="M69.8257448,95.2397791 L69.7937768,95.3630424 C69.2645923,97.5412645 69,99.7706323 69,102 C69,109.165825 71.73367,116.33165 77.2010101,121.79899 L77.2010101,121.79899 L79.3969998,123.996636 L76.8665972,126.541043 L76.5170591,126.908943 C75.393478,128.11288 74.3958624,129.391746 73.524196,130.728739 C58.8344491,128.178663 47.7313499,118.995309 49.2918259,96.8167878 C49.829117,94.5325783 62.7098151,94.2901314 69.8257448,95.2397791 Z M82.7828259,28.8427878 C103.560946,28.8427878 115.001653,39.8434302 115.228389,60.7890297 L115.231826,61.4257878 C112.395826,63.6287878 91.2668259,65.1327878 91.2668259,61.9957878 C91.6736461,51.102653 87.2713303,49.6886349 84.2324038,49.5224437 L84.0098847,49.5122915 C83.790045,49.5041739 83.5785225,49.5017878 83.3778259,49.5017878 C80.5498259,49.5017878 75.7878259,50.3567878 75.7878259,56.7687878 C75.7878259,63.3027878 82.7478259,66.9917878 90.9178259,71.3217878 C91.1499659,71.4447878 91.3830819,71.5683054 91.617042,71.6924206 L92.3213227,72.0666386 C93.5064492,72.6976064 94.7096097,73.3457294 95.9139984,74.0211951 C89.1144367,74.2831753 82.3921262,77.009894 77.2010101,82.2010101 C75.5962805,83.8057398 74.2270545,85.5567927 73.0933322,87.4112211 C62.1630223,81.2413702 50.0358259,73.6970278 50.0358259,57.3397878 C50.0358259,40.2417878 61.7958259,28.8427878 82.7828259,28.8427878 Z M127.290411,0.569787819 L127.936826,19.0737878 C127.953802,19.5420008 127.697175,19.9774091 127.279327,20.1893394 C126.861479,20.4012696 126.358567,20.3510949 125.990826,20.0607878 L125.990826,20.0607878 L120.028826,15.3637878 L112.968826,20.7177878 C112.597721,20.9986524 112.097903,21.0402637 111.685464,20.8246313 C111.273024,20.608999 111.021964,20.1748125 111.040826,19.7097878 L111.040826,19.7097878 L111.795826,1.53778782 L127.290411,0.569787819 Z"/><path stroke="#F40" stroke-linecap="round" stroke-linejoin="round" stroke-width="14" d="M97,102 L141,146 M141,102 L97,146"/></g></svg>