<svg xmlns="http://www.w3.org/2000/svg" width="160" height="160" viewBox="0 0 160 160"><g fill="none" fill-rule="evenodd"><path fill="#FF4785" fill-rule="nonzero" d="M142.166392,2.18614563 C143.788513,3.71016255 144.707826,5.83705136 144.707826,8.06278782 L144.70773,85.2541891 C138.909057,86.0975334 133.325585,88.761077 128.880869,93.2412698 L128.880869,93.2412698 L115.890698,106.333879 L114.089121,105.124869 L113.631752,104.831347 C108.269892,101.463844 102.012107,100.088206 95.9171917,100.705836 C89.7618742,101.329586 83.7724307,103.988112 79.038268,108.684788 C73.5492388,114.130353 70.7871067,121.285255 70.7584004,128.451023 C70.7301393,135.616791 73.4353041,142.793426 78.8808687,148.282455 L78.8808687,148.282455 L88.734,158.211 L28.6688259,155.513788 C24.4774569,155.325738 21.1309381,151.95443 20.9738259,147.761788 L20.9728259,147.761788 L16.0058259,15.4017878 C15.8410159,11.030205 19.1926698,7.32488124 23.5588259,7.05178782 L136.142826,0.0157878194 C138.364208,-0.123372537 140.544272,0.662128705 142.166392,2.18614563 Z"/><path fill="#FFF" d="M74.4478259,96.8167878 C74.2504779,104.176939 75.293388,108.096557 77.8794797,109.904675 C73.1603241,115.175612 70.7850099,121.808649 70.7584004,128.451023 C70.7561411,129.023884 70.7713513,129.596814 70.8040345,130.168946 C57.4912188,126.975318 47.8292437,117.603978 49.2918259,96.8167878 C50.0358259,93.6537878 74.4478259,94.4057878 74.4478259,96.8167878 Z M82.7828259,28.8427878 C103.560946,28.8427878 115.001653,39.8434302 115.228389,60.7890297 L115.231826,61.4257878 C112.395826,63.6287878 91.2668259,65.1327878 91.2668259,61.9957878 C91.6736461,51.102653 87.2713303,49.6886349 84.2324038,49.5224437 L84.0098847,49.5122915 C83.790045,49.5041739 83.5785225,49.5017878 83.3778259,49.5017878 C80.5498259,49.5017878 75.7878259,50.3567878 75.7878259,56.7687878 C75.7878259,63.3027878 82.7478259,66.9917878 90.9178259,71.3217878 C91.1499659,71.4447878 91.3830819,71.5683054 91.617042,71.6924206 L92.3213227,72.0666386 C103.626111,78.0853686 116.571826,85.6650678 116.571826,103.647788 C116.571826,104.349023 116.54957,105.038 116.505687,105.714606 L115.890698,106.333879 L114.089121,105.124869 L113.631752,104.831347 C108.269892,101.463844 102.012107,100.088206 95.9171917,100.705836 C93.9197593,100.908246 91.9397941,101.324926 90.0145227,101.95599 C88.7735305,96.2177022 82.1442014,92.4945742 74.6298259,88.2757878 L73.9497282,87.8937931 L73.9497282,87.8937931 L73.2655649,87.5086956 C62.2903411,81.320127 50.0358259,73.7826678 50.0358259,57.3397878 C50.0358259,40.2417878 61.7958259,28.8427878 82.7828259,28.8427878 Z M127.290411,0.569787819 L127.936826,19.0737878 C127.953802,19.5420008 127.697175,19.9774091 127.279327,20.1893394 C126.861479,20.4012696 126.358567,20.3510949 125.990826,20.0607878 L125.990826,20.0607878 L120.028826,15.3637878 L112.968826,20.7177878 C112.597721,20.9986524 112.097903,21.0402637 111.685464,20.8246313 C111.273024,20.608999 111.021964,20.1748125 111.040826,19.7097878 L111.040826,19.7097878 L111.795826,1.53778782 L127.290411,0.569787819 Z"/><polyline stroke="#66BF3C" stroke-linecap="round" stroke-linejoin="round" stroke-width="14" points="98.758 128.562 116.02 145.961 148.758 112.961"/></g></svg>