<svg xmlns="http://www.w3.org/2000/svg" width="160" height="160" viewBox="0 0 160 160"><g fill="none" fill-rule="evenodd"><path fill="#FF4785" fill-rule="nonzero" d="M142.166392,2.18614563 C143.788513,3.71016255 144.707826,5.83705136 144.707826,8.06278782 L144.707,93.069 L117.573373,77.2937988 L117.089101,77.0182585 C112.72147,74.5869875 108.110192,73.4652454 103.609673,73.4549549 C98.618889,73.4436896 93.7665128,74.7965859 89.5367346,77.230117 C85.3069564,79.6636481 81.6984643,83.1785689 79.1997941,87.4988352 C76.8631262,91.5389954 75.5,96.2829529 75.5,101.5 L75.5,101.5 L75.5,151.5 L75.5051983,152.057149 C75.5413523,153.991558 75.7654471,155.858919 76.1572287,157.647239 L28.6688259,155.513788 C24.4774569,155.325738 21.1309381,151.95443 20.9738259,147.761788 L20.9728259,147.761788 L16.0058259,15.4017878 C15.8410159,11.030205 19.1926698,7.32488124 23.5588259,7.05178782 L136.142826,0.0157878194 C138.364208,-0.123372537 140.544272,0.662128705 142.166392,2.18614563 Z"/><path fill="#FFF" d="M74.4478259,96.8167878 C74.3293287,101.236176 74.6579914,104.415122 75.4993922,106.64134 L75.5003616,131.030703 C59.8444559,128.967853 47.6621259,119.979168 49.2918259,96.8167878 C50.0358259,93.6537878 74.4478259,94.4057878 74.4478259,96.8167878 Z M82.7828259,28.8427878 C103.560946,28.8427878 115.001653,39.8434302 115.228389,60.7890297 L115.231826,61.4257878 C112.395826,63.6287878 91.2668259,65.1327878 91.2668259,61.9957878 C91.6736461,51.102653 87.2713303,49.6886349 84.2324038,49.5224437 L84.0098847,49.5122915 C83.790045,49.5041739 83.5785225,49.5017878 83.3778259,49.5017878 C80.5498259,49.5017878 75.7878259,50.3567878 75.7878259,56.7687878 C75.7878259,63.3027878 82.7478259,66.9917878 90.9178259,71.3217878 C91.1499659,71.4447878 91.3830819,71.5683054 91.617042,71.6924206 L92.3213227,72.0666386 C93.7058837,72.8037864 95.115059,73.5643491 96.5220506,74.3645711 C94.0717419,75.0047463 91.721208,75.9733173 89.5367346,77.230117 C85.3069564,79.6636481 81.6984643,83.1785689 79.1997941,87.4988352 C78.7131995,88.3401701 78.2688227,89.2120252 77.8701817,90.1123172 C76.819651,89.5052452 75.7342985,88.8958705 74.6298259,88.2757878 C74.4038859,88.1489278 74.1771459,88.021619 73.9497282,87.8937931 L73.2655649,87.5086956 C62.2903411,81.320127 50.0358259,73.7826678 50.0358259,57.3397878 C50.0358259,40.2417878 61.7958259,28.8427878 82.7828259,28.8427878 Z M127.290826,0.568787819 L127.936826,19.0737878 C127.953802,19.5420008 127.697175,19.9774091 127.279327,20.1893394 C126.861479,20.4012696 126.358567,20.3510949 125.990826,20.0607878 L125.990826,20.0607878 L120.028826,15.3637878 L112.968826,20.7177878 C112.597721,20.9986524 112.097903,21.0402637 111.685464,20.8246313 C111.273024,20.608999 111.021964,20.1748125 111.040826,19.7097878 L111.040826,19.7097878 L111.795826,1.53778782 L127.290826,0.568787819 Z"/><polygon stroke="#029CFD" stroke-linejoin="round" stroke-width="14" points="125 105 150 148 100 148" transform="rotate(90 125 126.5)"/></g></svg>