<svg xmlns="http://www.w3.org/2000/svg" width="160" height="160" viewBox="0 0 160 160"><g fill="none" fill-rule="evenodd"><path fill="#FF4785" fill-rule="nonzero" d="M20.9728259,147.761788 L16.0058259,15.4017878 C15.8410159,11.030205 19.1926698,7.32488124 23.5588259,7.05178782 L136.142826,0.0157878194 C138.364208,-0.123372537 140.544272,0.662128705 142.166392,2.18614563 C143.788513,3.71016255 144.707826,5.83705136 144.707826,8.06278782 L144.707826,152.292788 C144.707826,154.493708 143.807633,156.598869 142.216803,158.119827 C140.625973,159.640784 138.482539,160.445328 136.283826,160.346788 L28.6688259,155.513788 C24.4774569,155.325738 21.1309381,151.95443 20.9738259,147.761788 L20.9728259,147.761788 Z"/><path fill="#FFF" d="M127.290826,0.569787819 L111.795826,1.53778782 L111.040826,19.7097878 C111.021964,20.1748125 111.273024,20.608999 111.685464,20.8246313 C112.097903,21.0402637 112.597721,20.9986524 112.968826,20.7177878 L120.028826,15.3637878 L125.990826,20.0607878 C126.358567,20.3510949 126.861479,20.4012696 127.279327,20.1893394 C127.697175,19.9774091 127.953802,19.5420008 127.936826,19.0737878 L127.290826,0.568787819 L127.290826,0.569787819 Z M115.231826,61.4257878 C112.395826,63.6287878 91.2668259,65.1327878 91.2668259,61.9957878 C91.7138259,50.0267878 86.3548259,49.5017878 83.3778259,49.5017878 C80.5498259,49.5017878 75.7878259,50.3567878 75.7878259,56.7687878 C75.7878259,63.3027878 82.7478259,66.9917878 90.9178259,71.3217878 C102.524826,77.4717878 116.571826,84.9157878 116.571826,103.647788 C116.571826,121.600788 101.983826,131.518788 83.3778259,131.518788 C64.1768259,131.518788 47.3968259,123.749788 49.2918259,96.8167878 C50.0358259,93.6537878 74.4478259,94.4057878 74.4478259,96.8167878 C74.1498259,107.930788 76.6798259,111.199788 83.0808259,111.199788 C87.9928259,111.199788 90.2248259,108.491788 90.2248259,103.932788 C90.2248259,97.0327878 82.9728259,92.9597878 74.6298259,88.2757878 C63.3328259,81.9327878 50.0358259,74.4677878 50.0358259,57.3397878 C50.0358259,40.2417878 61.7958259,28.8427878 82.7828259,28.8427878 C103.770826,28.8427878 115.231826,40.0667878 115.231826,61.4267878 L115.231826,61.4257878 Z"/></g></svg>